<svg width="388" height="388" viewBox="0 0 388 388" fill="none" xmlns="http://www.w3.org/2000/svg">
<g clip-path="url(#clip0_173_73)">
<mask id="mask0_173_73" style="mask-type:alpha" maskUnits="userSpaceOnUse" x="0" y="0" width="388" height="388">
<rect width="388" height="388" rx="40" fill="#C2E2D3"/>
</mask>
<g mask="url(#mask0_173_73)">
<rect width="388" height="388" rx="40" fill="#C2E2D3"/>
</g>
<path d="M194.515 87.1509H194.513C180.35 87.1509 168.869 98.6311 168.869 112.793V224.029C168.869 238.191 180.35 249.671 194.513 249.671H194.515C208.678 249.671 220.159 238.191 220.159 224.029V112.793C220.159 98.6311 208.678 87.1509 194.515 87.1509Z" fill="#2E7377"/>
<path d="M236.588 176.645H151.361C148.634 176.645 145.949 176.822 143.314 177.164V113.434C143.314 98.9165 131.545 87.1484 117.027 87.1484H115.709C101.191 87.1484 89.4219 98.9165 89.4219 113.434V235.296C89.4219 235.742 89.4344 236.184 89.4543 236.626C89.4344 237.274 89.4219 237.923 89.4219 238.577C89.4219 272.781 117.152 300.508 151.358 300.508H236.586C270.792 300.508 298.522 272.781 298.522 238.577C298.522 204.373 270.792 176.645 236.586 176.645H236.588Z" fill="#2E7377"/>
<path d="M195.889 268.612C212.478 268.612 225.927 255.164 225.927 238.577C225.927 221.989 212.478 208.541 195.889 208.541C179.3 208.541 165.852 221.989 165.852 238.577C165.852 255.164 179.3 268.612 195.889 268.612Z" fill="white"/>
<path d="M244.424 268.612C261.014 268.612 274.462 255.164 274.462 238.577C274.462 221.989 261.014 208.541 244.424 208.541C227.835 208.541 214.387 221.989 214.387 238.577C214.387 255.164 227.835 268.612 244.424 268.612Z" fill="white"/>
<path d="M248.338 257.305C241.602 261.427 232.667 259.276 228.543 252.54C232.635 250.035 236.729 247.53 240.821 245.026C236.834 242.77 232.847 240.515 228.86 238.26C229.311 237.362 229.963 236.264 230.898 235.129C231.737 234.113 232.582 233.33 233.306 232.746C240.043 228.625 248.977 230.775 253.101 237.511C257.226 244.247 255.073 253.181 248.336 257.305H248.338Z" fill="black"/>
<path d="M198.01 257.31C191.271 261.429 182.336 259.276 178.217 252.538C182.311 250.035 186.405 247.53 190.5 245.028C186.513 242.77 182.528 240.515 178.541 238.257C178.993 237.359 179.644 236.261 180.582 235.126C181.42 234.111 182.266 233.33 182.992 232.746C189.731 228.627 198.666 230.78 202.785 237.519C206.905 244.257 204.751 253.191 198.012 257.31H198.01Z" fill="black"/>
</g>
<defs>
<clipPath id="clip0_173_73">
<rect width="388" height="388" fill="white"/>
</clipPath>
</defs>
</svg>
