<svg width="388" height="391" viewBox="0 0 388 391" fill="none" xmlns="http://www.w3.org/2000/svg">
<rect width="388" height="391" rx="40" fill="#0F2526"/>
<path d="M95.648 192.384C94.848 192.384 94.08 192.512 93.344 192.768C92.64 193.024 92.016 193.408 91.472 193.92C90.96 194.4 90.544 195.008 90.224 195.744C89.904 196.48 89.744 197.344 89.744 198.336C89.744 200.32 90.304 201.808 91.424 202.8C92.576 203.792 93.968 204.288 95.6 204.288C96.56 204.288 97.392 204.176 98.096 203.952C98.8 203.728 99.424 203.488 99.968 203.232C100.608 203.68 101.088 204.176 101.408 204.72C101.728 205.232 101.888 205.856 101.888 206.592C101.888 207.904 101.264 208.928 100.016 209.664C98.768 210.368 97.04 210.72 94.832 210.72C92.816 210.72 90.992 210.432 89.36 209.856C87.728 209.248 86.32 208.416 85.136 207.36C83.984 206.272 83.088 204.976 82.448 203.472C81.808 201.968 81.488 200.304 81.488 198.48C81.488 196.368 81.824 194.528 82.496 192.96C83.2 191.36 84.144 190.048 85.328 189.024C86.512 188 87.872 187.232 89.408 186.72C90.976 186.208 92.624 185.952 94.352 185.952C96.656 185.952 98.432 186.368 99.68 187.2C100.928 188.032 101.552 189.104 101.552 190.416C101.552 191.024 101.408 191.6 101.12 192.144C100.832 192.656 100.496 193.104 100.112 193.488C99.568 193.232 98.912 192.992 98.144 192.768C97.376 192.512 96.544 192.384 95.648 192.384ZM114.284 209.952C113.932 210.016 113.404 210.096 112.7 210.192C112.028 210.32 111.34 210.384 110.636 210.384C109.932 210.384 109.292 210.336 108.716 210.24C108.172 210.144 107.708 209.952 107.324 209.664C106.94 209.376 106.636 208.992 106.412 208.512C106.22 208 106.124 207.344 106.124 206.544V178.704C106.476 178.64 106.988 178.56 107.66 178.464C108.364 178.336 109.068 178.272 109.772 178.272C110.476 178.272 111.1 178.32 111.644 178.416C112.22 178.512 112.7 178.704 113.084 178.992C113.468 179.28 113.756 179.68 113.948 180.192C114.172 180.672 114.284 181.312 114.284 182.112V209.952ZM119.242 180.192C119.242 178.976 119.642 177.952 120.442 177.12C121.274 176.288 122.362 175.872 123.706 175.872C125.05 175.872 126.122 176.288 126.922 177.12C127.754 177.952 128.17 178.976 128.17 180.192C128.17 181.408 127.754 182.432 126.922 183.264C126.122 184.096 125.05 184.512 123.706 184.512C122.362 184.512 121.274 184.096 120.442 183.264C119.642 182.432 119.242 181.408 119.242 180.192ZM127.786 209.952C127.434 210.016 126.906 210.096 126.202 210.192C125.53 210.32 124.842 210.384 124.138 210.384C123.434 210.384 122.794 210.336 122.218 210.24C121.674 210.144 121.21 209.952 120.826 209.664C120.442 209.376 120.138 208.992 119.914 208.512C119.722 208 119.626 207.344 119.626 206.544V187.008C119.978 186.944 120.49 186.864 121.162 186.768C121.866 186.64 122.57 186.576 123.273 186.576C123.978 186.576 124.602 186.624 125.146 186.72C125.722 186.816 126.202 187.008 126.586 187.296C126.97 187.584 127.258 187.984 127.45 188.496C127.674 188.976 127.786 189.616 127.786 190.416V209.952ZM146.132 192.384C145.332 192.384 144.564 192.512 143.828 192.768C143.124 193.024 142.5 193.408 141.956 193.92C141.444 194.4 141.028 195.008 140.708 195.744C140.388 196.48 140.228 197.344 140.228 198.336C140.228 200.32 140.788 201.808 141.908 202.8C143.06 203.792 144.452 204.288 146.084 204.288C147.044 204.288 147.876 204.176 148.58 203.952C149.284 203.728 149.908 203.488 150.452 203.232C151.092 203.68 151.572 204.176 151.892 204.72C152.212 205.232 152.372 205.856 152.372 206.592C152.372 207.904 151.748 208.928 150.5 209.664C149.252 210.368 147.524 210.72 145.316 210.72C143.3 210.72 141.476 210.432 139.844 209.856C138.212 209.248 136.804 208.416 135.62 207.36C134.468 206.272 133.572 204.976 132.932 203.472C132.292 201.968 131.972 200.304 131.972 198.48C131.972 196.368 132.308 194.528 132.98 192.96C133.684 191.36 134.628 190.048 135.812 189.024C136.996 188 138.356 187.232 139.892 186.72C141.46 186.208 143.108 185.952 144.836 185.952C147.14 185.952 148.916 186.368 150.164 187.2C151.412 188.032 152.036 189.104 152.036 190.416C152.036 191.024 151.892 191.6 151.604 192.144C151.316 192.656 150.98 193.104 150.596 193.488C150.052 193.232 149.396 192.992 148.628 192.768C147.86 192.512 147.028 192.384 146.132 192.384ZM179.265 205.776C179.105 207.28 178.657 208.432 177.921 209.232C177.217 210.032 176.177 210.432 174.801 210.432C173.777 210.432 172.865 210.192 172.065 209.712C171.265 209.2 170.401 208.352 169.473 207.168L164.721 201.216V209.952C164.369 210.016 163.841 210.096 163.137 210.192C162.465 210.32 161.777 210.384 161.073 210.384C160.369 210.384 159.729 210.336 159.153 210.24C158.609 210.144 158.145 209.952 157.761 209.664C157.377 209.376 157.073 208.992 156.849 208.512C156.657 208 156.561 207.344 156.561 206.544V178.752C156.913 178.656 157.425 178.56 158.097 178.464C158.801 178.336 159.505 178.272 160.209 178.272C160.913 178.272 161.537 178.32 162.081 178.416C162.657 178.512 163.137 178.704 163.521 178.992C163.905 179.28 164.193 179.68 164.385 180.192C164.609 180.672 164.721 181.312 164.721 182.112V194.784L172.977 186.336C174.641 186.336 175.969 186.704 176.961 187.44C177.985 188.176 178.497 189.104 178.497 190.224C178.497 190.704 178.417 191.152 178.257 191.568C178.097 191.952 177.841 192.352 177.489 192.768C177.169 193.184 176.737 193.632 176.193 194.112C175.681 194.56 175.073 195.088 174.369 195.696L171.585 198.096L179.265 205.776ZM183.186 178.752C183.506 178.656 184.018 178.56 184.722 178.464C185.426 178.336 186.146 178.272 186.882 178.272C187.586 178.272 188.21 178.32 188.754 178.416C189.33 178.512 189.81 178.704 190.194 178.992C190.578 179.28 190.866 179.68 191.058 180.192C191.25 180.672 191.346 181.312 191.346 182.112V186.816C192.146 186.496 192.898 186.272 193.602 186.144C194.338 186.016 195.138 185.952 196.002 185.952C197.538 185.952 198.994 186.224 200.37 186.768C201.746 187.312 202.962 188.112 204.018 189.168C205.074 190.192 205.906 191.472 206.514 193.008C207.122 194.544 207.426 196.32 207.426 198.336C207.426 200.416 207.106 202.24 206.466 203.808C205.858 205.344 204.994 206.624 203.874 207.648C202.754 208.672 201.378 209.456 199.746 210C198.146 210.512 196.37 210.768 194.418 210.768C192.306 210.768 190.514 210.512 189.042 210C187.57 209.52 186.322 208.912 185.298 208.176C183.89 207.184 183.186 205.904 183.186 204.336V178.752ZM194.418 204.336C195.89 204.336 197.026 203.84 197.826 202.848C198.658 201.824 199.074 200.32 199.074 198.336C199.074 196.32 198.658 194.816 197.826 193.824C196.994 192.832 195.874 192.336 194.466 192.336C193.826 192.336 193.266 192.4 192.786 192.528C192.338 192.656 191.842 192.848 191.298 193.104V203.568C191.65 203.792 192.066 203.984 192.546 204.144C193.058 204.272 193.682 204.336 194.418 204.336ZM211.402 187.008C211.722 186.912 212.218 186.816 212.89 186.72C213.594 186.624 214.314 186.576 215.05 186.576C215.754 186.576 216.378 186.624 216.922 186.72C217.498 186.816 217.978 187.008 218.362 187.296C218.746 187.584 219.034 187.984 219.226 188.496C219.45 188.976 219.562 189.616 219.562 190.416V200.736C219.562 202.048 219.882 202.992 220.522 203.568C221.162 204.112 222.09 204.384 223.306 204.384C224.042 204.384 224.634 204.32 225.082 204.192C225.562 204.064 225.93 203.936 226.186 203.808V187.008C226.506 186.912 227.002 186.816 227.674 186.72C228.378 186.624 229.098 186.576 229.834 186.576C230.538 186.576 231.162 186.624 231.706 186.72C232.282 186.816 232.762 187.008 233.146 187.296C233.53 187.584 233.818 187.984 234.01 188.496C234.234 188.976 234.346 189.616 234.346 190.416V205.008C234.346 206.608 233.674 207.808 232.33 208.608C231.21 209.312 229.866 209.84 228.298 210.192C226.762 210.576 225.082 210.768 223.258 210.768C221.53 210.768 219.93 210.576 218.458 210.192C217.018 209.808 215.77 209.216 214.714 208.416C213.658 207.616 212.842 206.592 212.266 205.344C211.69 204.064 211.402 202.528 211.402 200.736V187.008ZM238.332 198.336C238.332 196.224 238.652 194.4 239.292 192.864C239.932 191.296 240.812 190 241.932 188.976C243.084 187.952 244.412 187.2 245.916 186.72C247.452 186.208 249.1 185.952 250.86 185.952C251.5 185.952 252.124 186.016 252.732 186.144C253.34 186.24 253.836 186.368 254.22 186.528V178.752C254.54 178.656 255.052 178.56 255.756 178.464C256.46 178.336 257.18 178.272 257.916 178.272C258.62 178.272 259.244 178.32 259.788 178.416C260.364 178.512 260.844 178.704 261.228 178.992C261.612 179.28 261.9 179.68 262.092 180.192C262.284 180.672 262.38 181.312 262.38 182.112V204.864C262.38 206.368 261.676 207.568 260.268 208.464C259.34 209.072 258.14 209.6 256.668 210.048C255.196 210.528 253.5 210.768 251.58 210.768C249.5 210.768 247.628 210.48 245.964 209.904C244.332 209.328 242.94 208.496 241.788 207.408C240.668 206.32 239.804 205.024 239.196 203.52C238.62 201.984 238.332 200.256 238.332 198.336ZM251.964 192.336C250.236 192.336 248.908 192.832 247.98 193.824C247.052 194.816 246.588 196.32 246.588 198.336C246.588 200.32 247.02 201.824 247.884 202.848C248.748 203.84 249.996 204.336 251.628 204.336C252.204 204.336 252.716 204.256 253.164 204.096C253.644 203.904 254.012 203.696 254.268 203.472V192.912C253.628 192.528 252.86 192.336 251.964 192.336ZM266.457 198.336C266.457 196.224 266.777 194.4 267.417 192.864C268.057 191.296 268.937 190 270.057 188.976C271.209 187.952 272.537 187.2 274.041 186.72C275.577 186.208 277.225 185.952 278.985 185.952C279.625 185.952 280.249 186.016 280.857 186.144C281.465 186.24 281.961 186.368 282.345 186.528V178.752C282.665 178.656 283.177 178.56 283.881 178.464C284.585 178.336 285.305 178.272 286.041 178.272C286.745 178.272 287.369 178.32 287.913 178.416C288.489 178.512 288.969 178.704 289.353 178.992C289.737 179.28 290.025 179.68 290.217 180.192C290.409 180.672 290.505 181.312 290.505 182.112V204.864C290.505 206.368 289.801 207.568 288.393 208.464C287.465 209.072 286.265 209.6 284.793 210.048C283.321 210.528 281.625 210.768 279.705 210.768C277.625 210.768 275.753 210.48 274.089 209.904C272.457 209.328 271.065 208.496 269.913 207.408C268.793 206.32 267.929 205.024 267.321 203.52C266.745 201.984 266.457 200.256 266.457 198.336ZM280.089 192.336C278.361 192.336 277.033 192.832 276.105 193.824C275.177 194.816 274.713 196.32 274.713 198.336C274.713 200.32 275.145 201.824 276.009 202.848C276.873 203.84 278.121 204.336 279.753 204.336C280.329 204.336 280.841 204.256 281.289 204.096C281.769 203.904 282.137 203.696 282.393 203.472V192.912C281.753 192.528 280.985 192.336 280.089 192.336ZM299.238 204.048C298.886 203.248 298.502 202.352 298.086 201.36C297.702 200.368 297.286 199.232 296.838 197.952C296.422 196.672 295.974 195.216 295.494 193.584C295.046 191.92 294.566 190.016 294.054 187.872C294.502 187.424 295.094 187.04 295.83 186.72C296.598 186.368 297.43 186.192 298.326 186.192C299.446 186.192 300.374 186.432 301.11 186.912C301.846 187.36 302.39 188.224 302.742 189.504L306.534 202.704H306.726C307.11 201.616 307.478 200.432 307.83 199.152C308.214 197.872 308.582 196.56 308.934 195.216C309.286 193.84 309.606 192.48 309.894 191.136C310.214 189.76 310.486 188.416 310.71 187.104C311.862 186.496 313.126 186.192 314.502 186.192C315.622 186.192 316.55 186.432 317.286 186.912C318.022 187.392 318.39 188.224 318.39 189.408C318.39 190.272 318.278 191.28 318.054 192.432C317.83 193.552 317.526 194.752 317.142 196.032C316.79 197.312 316.358 198.64 315.846 200.016C315.366 201.36 314.854 202.688 314.31 204C313.766 205.312 313.206 206.56 312.63 207.744C312.054 208.896 311.494 209.936 310.95 210.864C310.054 212.432 309.222 213.712 308.454 214.704C307.686 215.696 306.95 216.464 306.246 217.008C305.542 217.584 304.838 217.968 304.134 218.16C303.43 218.384 302.694 218.496 301.926 218.496C300.582 218.496 299.494 218.096 298.662 217.296C297.83 216.496 297.334 215.456 297.174 214.176C298.198 213.376 299.222 212.48 300.246 211.488C301.27 210.528 302.198 209.536 303.03 208.512C302.486 208.352 301.894 207.984 301.254 207.408C300.646 206.8 299.974 205.68 299.238 204.048Z" fill="#C2E2D3"/>
</svg>
