<svg width="25" height="17" viewBox="0 0 25 17" fill="none" xmlns="http://www.w3.org/2000/svg">
<path opacity="0.7" d="M25 5.99169V4.32514C25 3.79749 24.7743 3.31842 24.4108 2.97268C23.9178 2.50379 23.217 2.43487 22.9889 2.41227C21.883 2.3038 22.7347 2.29137 12.3753 2.41227C12.2422 2.39871 11.7528 2.33544 11.3763 1.94111C11.2052 1.76147 11.1138 1.57278 11.0627 1.42928C10.8774 0.61239 10.1136 0 9.1989 0H1.90891C0.855269 0 0 0.812375 0 1.81457V3.88223C0 4.03024 0 4.17825 0 4.32514V6.46398V15.2453C0 16.2147 0.825572 17 1.84477 17H23.154C24.1732 17 24.9988 16.2147 24.9988 15.2453V6.0109C24.9988 6.00525 24.9988 5.99847 24.9988 5.99282L25 5.99169Z" fill="#F5F5F5"/>
</svg>
