<svg width="29" height="18" viewBox="0 0 29 18" fill="none" xmlns="http://www.w3.org/2000/svg">
    <path
        d="M0.544632 12.5796V6.71525H0.543457V4.49325C0.543457 4.33948 0.543458 4.18571 0.544632 4.03312V1.88506C0.544632 0.843902 1.38859 -6.10352e-05 2.42858 -6.10352e-05H9.63337C10.5372 -6.10352e-05 11.2919 0.636139 11.4751 1.4848C11.5244 1.63387 11.6147 1.82989 11.7849 2.01653C12.1559 2.42618 12.6395 2.49192 12.7721 2.506C23.0088 2.37923 22.1672 2.39332 23.26 2.506C23.4854 2.52948 24.1779 2.60108 24.6651 3.08821C24.9421 3.36523 25.1381 3.72323 25.2132 4.12467H5.24336C4.13411 4.12467 3.15868 4.80783 2.81711 5.82551L0.544632 12.5796Z"
        fill="#F5F5F5" />
    <path
        d="M28.3731 6.97108L25.0806 16.7594C24.8998 17.2958 24.3681 17.6609 23.7659 17.6609H1.95084C1.10453 17.6609 0.478895 16.9636 0.584537 16.2136C0.593928 16.1385 0.611535 16.0633 0.636185 15.9882L3.92869 6.1999C4.10946 5.66347 4.64237 5.29842 5.24335 5.29842H27.0584C27.9893 5.29842 28.6525 6.14238 28.3731 6.97108Z"
        fill="#F5F5F5" />
</svg>