<svg width="542" height="394" viewBox="0 0 542 394" fill="none" xmlns="http://www.w3.org/2000/svg">
    <g opacity="0.22" clip-path="url(#clip0_113_1774)">
        <path
            d="M399.47 196.81C399.47 246.64 359.08 287.02 309.26 287.02C259.44 287.02 219.95 247.53 219.07 198.46C219.95 232.26 247.61 259.39 281.62 259.39C315.63 259.39 344.19 231.38 344.19 196.82C344.19 162.26 316.18 134.25 281.62 134.25C247.06 134.25 219.94 161.39 219.07 195.18C219.95 146.12 259.99 106.62 309.26 106.62C358.53 106.62 399.47 147.01 399.47 196.83V196.81Z"
            stroke="white" stroke-miterlimit="10" />
        <path
            d="M540.66 198.09C539.98 236.2 508.88 266.87 470.62 266.87C432.36 266.87 400.56 235.51 400.56 196.81C400.56 158.11 431.93 126.75 470.62 126.75C509.31 126.75 539.98 157.43 540.66 195.53C539.98 169.29 518.49 148.21 492.08 148.21C465.67 148.21 443.48 169.97 443.48 196.81C443.48 223.65 465.24 245.41 492.08 245.41C518.92 245.41 539.98 224.34 540.66 198.09Z"
            stroke="white" stroke-miterlimit="10" />
        <path
            d="M107.87 196.81C107.87 99.55 178.62 18.8 271.46 3.22C260.83 1.43 249.89 0.5 238.74 0.5C132.32 0.5 45.7 85.17 42.52 190.8C42.89 192.74 43.07 194.75 43.07 196.81C43.07 198.87 42.89 200.88 42.52 202.82C45.7 308.46 132.33 393.12 238.74 393.12C249.88 393.12 260.82 392.19 271.46 390.41C178.62 374.82 107.87 294.09 107.87 196.81Z"
            stroke="white" stroke-miterlimit="10" />
        <path
            d="M187.28 196.81C187.28 127.88 237.42 70.6402 303.22 59.6102C295.67 58.3402 287.93 57.6802 280.03 57.6802C203.18 57.6802 140.9 119.98 140.9 196.81C140.9 273.64 203.18 335.94 280.03 335.94C287.93 335.94 295.67 335.28 303.22 334.01C237.42 322.98 187.28 265.75 187.28 196.81Z"
            stroke="white" stroke-miterlimit="10" />
        <path d="M400.1 196.8V196.81V196.8Z" stroke="white" stroke-miterlimit="10" />
        <path
            d="M29.2999 181.06C18.8899 179.72 10.1099 188.48 11.4399 198.89C12.3399 205.96 18.0499 211.67 25.1199 212.56C35.4899 213.87 44.2199 205.17 42.9499 194.8C42.0799 187.72 36.3799 181.98 29.2999 181.07V181.06Z"
            stroke="white" stroke-miterlimit="10" />
        <path
            d="M125.86 181.06C115.45 179.72 106.67 188.48 108 198.89C108.9 205.96 114.61 211.67 121.68 212.56C132.05 213.87 140.78 205.17 139.51 194.8C138.64 187.72 132.94 181.98 125.86 181.07V181.06Z"
            stroke="white" stroke-miterlimit="10" />
        <path
            d="M205.91 181.06C195.5 179.72 186.72 188.48 188.05 198.89C188.95 205.96 194.66 211.67 201.73 212.56C212.1 213.87 220.83 205.17 219.56 194.8C218.69 187.72 212.99 181.98 205.91 181.07V181.06Z"
            stroke="white" stroke-miterlimit="10" />
        <path
            d="M526.1 181.06C515.69 179.72 506.91 188.48 508.24 198.89C509.14 205.96 514.85 211.67 521.92 212.56C532.29 213.87 541.02 205.17 539.75 194.8C538.88 187.72 533.18 181.98 526.1 181.07V181.06Z"
            stroke="white" stroke-miterlimit="10" />
        <path
            d="M6.5899 191.82C2.9999 191.13 -0.0900978 194.22 0.589902 197.81C0.969902 199.81 2.5799 201.42 4.5799 201.8C8.1499 202.48 11.2299 199.41 10.5699 195.83C10.1999 193.83 8.5899 192.21 6.5899 191.82Z"
            stroke="white" stroke-miterlimit="10" />
        <path
            d="M475.65 228.52C493.16 228.52 507.36 214.32 507.36 196.81C507.36 179.3 493.16 165.1 475.65 165.1C458.14 165.1 444.38 178.86 443.95 195.99C443.95 196.26 443.94 196.54 443.94 196.81C443.94 197.08 443.94 197.36 443.95 197.63C444.38 214.77 458.41 228.52 475.65 228.52Z"
            stroke="white" stroke-miterlimit="10" />
        <path
            d="M255.89 233.66C276.24 233.66 292.74 217.16 292.74 196.81C292.74 176.46 276.24 159.96 255.89 159.96C235.54 159.96 219.56 175.94 219.06 195.86C219.06 196.18 219.04 196.49 219.04 196.81C219.04 197.13 219.04 197.44 219.06 197.76C219.56 217.67 235.86 233.66 255.89 233.66Z"
            stroke="white" stroke-miterlimit="10" />
    </g>
    <defs>
        <clipPath id="clip0_113_1774">
            <rect width="541.16" height="393.62" fill="white" />
        </clipPath>
    </defs>
</svg>